<svg width="27" height="27" viewBox="0 0 27 27" fill="none" xmlns="http://www.w3.org/2000/svg">
<path d="M25.2351 1.061L22.6342 2.26514C22.4676 2.34333 22.3139 2.45019 22.1832 2.58311L17.9448 6.89663L3.34903 5.11649C3.08509 5.08522 2.81859 5.17644 2.63153 5.36931L1.81923 6.19552C1.38874 6.63339 1.52199 7.3736 2.07804 7.62641L12.538 12.396L9.53483 15.4507H4.28945C4.05883 15.4507 3.83846 15.5445 3.67446 15.7087L3.23628 16.157C2.80066 16.6001 2.94416 17.3481 3.5079 17.5931L7.93328 19.5218L9.82951 24.023C10.0704 24.5964 10.8084 24.7424 11.2415 24.2993L11.6822 23.851C11.8462 23.6842 11.9359 23.46 11.9359 23.2255V17.8902L14.9391 14.8356L19.6284 25.4774C19.8769 26.0429 20.6047 26.1785 21.0352 25.7406L21.8475 24.9144C22.0371 24.7215 22.1268 24.4531 22.096 24.1846L20.3433 9.33882L24.5842 5.02529C24.7149 4.89237 24.8199 4.7386 24.8968 4.56658L26.0807 1.92112C26.3293 1.37637 25.7758 0.810788 25.2351 1.061Z" stroke="#000585" stroke-opacity="0.47" stroke-width="1.5"/>
</svg>
