<svg width="34" height="29" viewBox="0 0 34 29" fill="none" xmlns="http://www.w3.org/2000/svg">
<path d="M25.1752 5.74192C25.9712 4.70978 26.1102 3.40964 25.5775 1.98206C25.1971 0.96255 24.6013 0.231646 24.5762 0.201074C24.381 -0.0365236 24.0332 -0.0680925 23.7997 0.130626C23.5661 0.329177 23.5352 0.682251 23.7297 0.919848C23.7565 0.952913 25.6456 3.31443 24.3075 5.04973C22.3807 7.54882 24.4351 10.8448 24.5234 10.9839C24.629 11.1498 24.8062 11.2402 24.987 11.2402C25.0896 11.2402 25.1933 11.2111 25.2858 11.1503C25.5412 10.9822 25.6147 10.6351 25.4494 10.3749C25.4325 10.3483 23.7351 7.6093 25.1752 5.74192Z" fill="#878AC6"/>
<path d="M28.8757 5.74192C29.6717 4.70978 29.8107 3.40964 29.2781 1.98206C28.8975 0.96255 28.3018 0.231646 28.2766 0.201074C28.0816 -0.0365236 27.7336 -0.0680925 27.5001 0.130626C27.2668 0.329011 27.2356 0.682084 27.4301 0.919682C27.4494 0.943442 29.3488 3.31094 28.0079 5.04973C26.0811 7.54882 28.1356 10.8448 28.224 10.9839C28.3295 11.1498 28.5066 11.2402 28.6874 11.2402C28.79 11.2402 28.8937 11.2111 28.9863 11.1503C29.242 10.9822 29.3153 10.6351 29.15 10.3749C29.1332 10.3483 27.4357 7.6093 28.8757 5.74192Z" fill="#878AC6"/>
<path d="M5.72647 6.00181C6.52245 4.96967 6.66146 3.66953 6.12879 2.24195C5.74819 1.22244 5.15264 0.491534 5.12748 0.460962C4.93228 0.223364 4.58468 0.191795 4.35094 0.390513C4.11768 0.588899 4.08648 0.941973 4.28102 1.17957C4.30046 1.20333 6.19968 3.57083 4.85894 5.30962C2.93179 7.80871 4.98635 11.1045 5.07488 11.2437C5.18041 11.4097 5.35747 11.5001 5.5383 11.5001C5.64088 11.5001 5.7446 11.471 5.83705 11.4102C6.09269 11.2421 6.16603 10.8948 6.00056 10.6348C5.98374 10.6082 4.28625 7.86919 5.72647 6.00181Z" fill="#878AC6"/>
<path d="M9.42716 6.00181C10.2231 4.96967 10.3621 3.66953 9.82964 2.24195C9.44921 1.22244 8.85349 0.491534 8.82833 0.460962C8.63314 0.223364 8.28554 0.191795 8.05179 0.390513C7.81853 0.588899 7.78733 0.941973 7.98188 1.17957C8.00131 1.20333 9.90053 3.57083 8.55963 5.30962C6.63248 7.80871 8.68704 11.1045 8.77541 11.2437C8.88093 11.4097 9.058 11.5001 9.23882 11.5001C9.3414 11.5001 9.44513 11.471 9.53774 11.4102C9.79338 11.2421 9.86672 10.8948 9.70125 10.6348C9.68443 10.6082 7.98694 7.86919 9.42716 6.00181Z" fill="#878AC6"/>
<path d="M32.0112 23.622H30.8418C30.5673 16.6265 25.1816 10.9461 18.3882 10.3463V9.77521C19.078 9.35551 19.5063 8.60317 19.5063 7.76676C19.5063 6.47211 18.4705 5.4187 17.1977 5.4187C17.1894 5.4187 17.1563 5.4187 17.1479 5.4187C15.875 5.4187 14.8394 6.47211 14.8394 7.76676C14.8394 8.60317 15.2678 9.35568 15.9573 9.77521V10.3463C9.16408 10.9461 3.77825 16.6263 3.50367 23.622H2.33427C1.32513 23.622 0.50415 24.4571 0.50415 25.4834V26.1846C0.50415 27.2117 1.32513 28.0471 2.33411 28.0471H32.0114C33.0205 28.0471 33.8414 27.2117 33.8414 26.1846V25.4834C33.8412 24.4571 33.0202 23.622 32.0112 23.622ZM15.9416 7.76676C15.9416 7.09052 16.4826 6.54023 17.1476 6.54023C17.1561 6.54023 17.1891 6.54023 17.1974 6.54023C17.8624 6.54023 18.4034 7.09052 18.4034 7.76676C18.4034 8.27237 18.1019 8.71965 17.6352 8.9059C17.4241 8.99014 17.2855 9.19733 17.2855 9.42795V10.2938H17.0596V9.42795C17.0596 9.19733 16.9207 8.99031 16.7098 8.9059C16.2432 8.71948 15.9416 8.27237 15.9416 7.76676ZM32.0112 26.9254H2.33395C1.93277 26.9254 1.60657 26.593 1.60657 26.1844V25.4832C1.60657 25.0753 1.93293 24.7435 2.33395 24.7435H3.24035C3.24542 24.7437 3.25015 24.7444 3.25522 24.7444H23.053C23.3573 24.7444 23.6043 24.4933 23.6043 24.1836C23.6043 23.8741 23.3573 23.6228 23.053 23.6228H4.60772C4.89619 16.8584 10.383 11.4424 17.0968 11.4151H17.2484C23.9624 11.4424 29.4488 16.8583 29.7375 23.6228H26.6189C26.3144 23.6228 26.0676 23.8741 26.0676 24.1836C26.0676 24.4933 26.3144 24.7444 26.6189 24.7444L30.8761 24.7435H32.0111C32.4122 24.7435 32.7384 25.0753 32.7384 25.4832V26.1844H32.7386C32.7386 26.593 32.4122 26.9254 32.0112 26.9254Z" fill="#878AC6"/>
</svg>
