<svg width="68" height="69" viewBox="0 0 68 69" fill="none" xmlns="http://www.w3.org/2000/svg">
<g clip-path="url(#clip0)">
<path d="M42.7708 43.7815V33.5532C42.7708 31.6944 41.2757 30.1816 39.4384 30.1816H8.33612C6.49887 30.1816 5.00373 31.6944 5.00373 33.5532V43.7815C2.47223 44.3041 0.560547 46.5743 0.560547 49.2873V56.0305V67.2692C0.560547 67.8896 1.05818 68.3931 1.67134 68.3931H6.11453C6.72769 68.3931 7.22533 67.8896 7.22533 67.2692V63.8976H40.5492V67.2692C40.5492 67.8896 41.0469 68.3931 41.66 68.3931H46.1032C46.7164 68.3931 47.214 67.8896 47.214 67.2692V56.0305V49.2873C47.214 46.5743 45.3023 44.3041 42.7708 43.7815ZM7.22533 33.5532C7.22533 32.934 7.72407 32.4294 8.33612 32.4294H39.4384C40.0505 32.4294 40.5492 32.934 40.5492 33.5532V43.668H38.3276V39.1726C38.3276 37.3137 36.8325 35.801 34.9952 35.801H28.3305C26.4932 35.801 24.9981 37.3137 24.9981 39.1726V43.668H22.7765V39.1726C22.7765 37.3137 21.2813 35.801 19.4441 35.801H12.7793C10.9421 35.801 9.44692 37.3137 9.44692 39.1726V43.668H7.22533V33.5532ZM36.106 39.1726V43.668H27.2197V39.1726C27.2197 38.5533 27.7184 38.0487 28.3305 38.0487H34.9952C35.6073 38.0487 36.106 38.5533 36.106 39.1726ZM20.5549 39.1726V43.668H11.6685V39.1726C11.6685 38.5533 12.1673 38.0487 12.7793 38.0487H19.4441C20.0561 38.0487 20.5549 38.5533 20.5549 39.1726ZM44.9924 66.1453H42.7708V62.7737C42.7708 62.1534 42.2732 61.6499 41.66 61.6499H6.11453C5.50137 61.6499 5.00373 62.1534 5.00373 62.7737V66.1453H2.78214V57.1544H44.9924V66.1453ZM44.9924 54.9067H2.78214V49.2873C2.78214 47.4285 4.27727 45.9158 6.11453 45.9158H10.5577H21.6657H26.1089H37.2168H41.66C43.4973 45.9158 44.9924 47.4285 44.9924 49.2873V54.9067Z" fill="#27ACD6"/>
<path d="M66.0975 43.668H50.5463C49.9332 43.668 49.4355 44.1715 49.4355 44.7918V53.7827V61.6498H51.6571V54.9066H64.9867V61.6498H67.2083V53.7827V44.7918C67.2083 44.1715 66.7107 43.668 66.0975 43.668ZM64.9867 52.6589H51.6571V45.9157H64.9867V52.6589Z" fill="#27ACD6"/>
<path d="M60.5438 48.1636H56.1006V50.4113H60.5438V48.1636Z" fill="#27ACD6"/>
<path d="M63.8193 34.3209L61.5977 27.5777C61.4455 27.1191 61.0223 26.8101 60.5435 26.8101H56.1003C55.6216 26.8101 55.1984 27.1191 55.0462 27.5788L52.8246 34.322C52.7113 34.6648 52.7691 35.0412 52.9779 35.3346C53.1867 35.6279 53.5222 35.801 53.8788 35.801H57.2111V39.1726H54.9896V41.4203H61.6543V39.1726H59.4327V35.801H62.7651C63.1217 35.801 63.4572 35.6279 63.666 35.3335C63.8748 35.0401 63.9315 34.6636 63.8193 34.3209ZM55.4194 33.5533L56.9012 29.0578H59.7438L61.2245 33.5533H55.4194Z" fill="#27ACD6"/>
<path d="M66.5519 15.6692L34.3388 1.05896C34.0488 0.92859 33.7189 0.92859 33.4301 1.05896L1.21703 15.6692C0.817141 15.8513 0.560547 16.2525 0.560547 16.6953V30.1817H2.78214V17.4224L33.8844 3.3168L64.9868 17.4236V30.1817H67.2084V16.6953C67.2084 16.2525 66.9518 15.8513 66.5519 15.6692Z" fill="#27ACD6"/>
<path d="M41.5523 16.5088L39.3607 16.8819C39.4129 17.1887 39.4384 17.5034 39.4384 17.8192C39.4384 20.9177 36.9469 23.4385 33.8845 23.4385C30.822 23.4385 28.3305 20.9177 28.3305 17.8192C28.3305 14.7207 30.822 12.1999 33.8845 12.1999C34.5198 12.1999 35.1441 12.3078 35.7373 12.5202L36.4771 10.4006C35.6451 10.1027 34.7731 9.95215 33.8845 9.95215C29.5968 9.95215 26.1089 13.4811 26.1089 17.8192C26.1089 22.1573 29.5968 25.6863 33.8845 25.6863C38.1721 25.6863 41.66 22.1573 41.66 17.8192C41.66 17.3786 41.6234 16.9381 41.5523 16.5088Z" fill="#27ACD6"/>
<path d="M40.8746 10.2815L33.8844 17.354L32.4481 15.9008L30.8774 17.49L33.099 19.7377C33.3156 19.9568 33.6 20.067 33.8844 20.067C34.1687 20.067 34.4531 19.9568 34.6697 19.7377L42.4453 11.8706L40.8746 10.2815Z" fill="#27ACD6"/>
</g>
<defs>
<clipPath id="clip0">
<rect x="0.560547" y="0.961182" width="66.6478" height="67.4319" fill="white"/>
</clipPath>
</defs>
</svg>
