<svg width="32" height="32" viewBox="0 0 32 32" fill="none" xmlns="http://www.w3.org/2000/svg">
<g clip-path="url(#clip0)">
<path d="M20.1159 20.3206V15.4667C20.1159 14.5846 19.4322 13.8667 18.5921 13.8667H4.36978C3.52965 13.8667 2.84597 14.5846 2.84597 15.4667V20.3206C1.68837 20.5686 0.814209 21.6459 0.814209 22.9334V26.1334V31.4667C0.814209 31.7611 1.04177 32 1.32215 32H3.3539C3.63429 32 3.86184 31.7611 3.86184 31.4667V29.8667H19.1V31.4667C19.1 31.7611 19.3276 32 19.608 32H21.6397C21.9201 32 22.1477 31.7611 22.1477 31.4667V26.1334V22.9334C22.1477 21.6459 21.2735 20.5686 20.1159 20.3206ZM3.86184 15.4667C3.86184 15.1728 4.08991 14.9334 4.36978 14.9334H18.5921C18.872 14.9334 19.1 15.1728 19.1 15.4667V20.2667H18.0841V18.1334C18.0841 17.2512 17.4005 16.5334 16.5603 16.5334H13.5127C12.6726 16.5334 11.9889 17.2512 11.9889 18.1334V20.2667H10.973V18.1334C10.973 17.2512 10.2893 16.5334 9.44917 16.5334H6.40154C5.56141 16.5334 4.87772 17.2512 4.87772 18.1334V20.2667H3.86184V15.4667ZM17.0683 18.1334V20.2667H13.0048V18.1334C13.0048 17.8395 13.2328 17.6 13.5127 17.6H16.5603C16.8402 17.6 17.0683 17.8395 17.0683 18.1334ZM9.95711 18.1334V20.2667H5.8936V18.1334C5.8936 17.8395 6.12167 17.6 6.40154 17.6H9.44917C9.72905 17.6 9.95711 17.8395 9.95711 18.1334ZM21.1318 30.9334H20.1159V29.3334C20.1159 29.039 19.8883 28.8 19.608 28.8H3.3539C3.07352 28.8 2.84597 29.039 2.84597 29.3334V30.9334H1.83009V26.6667H21.1318V30.9334ZM21.1318 25.6H1.83009V22.9334C1.83009 22.0512 2.51377 21.3334 3.3539 21.3334H5.38566H10.4651H12.4968H17.5762H19.608C20.4481 21.3334 21.1318 22.0512 21.1318 22.9334V25.6Z" fill="#878AC6"/>
<path d="M30.7827 20.2667H23.6715C23.3911 20.2667 23.1636 20.5057 23.1636 20.8001V25.0667V28.8H24.1795V25.6001H30.2747V28.8H31.2906V25.0667V20.8001C31.2906 20.5057 31.063 20.2667 30.7827 20.2667ZM30.2747 24.5334H24.1795V21.3334H30.2747V24.5334Z" fill="#878AC6"/>
<path d="M28.2429 22.4H26.2112V23.4667H28.2429V22.4Z" fill="#878AC6"/>
<path d="M29.7409 15.831L28.725 12.631C28.6555 12.4134 28.4619 12.2667 28.243 12.2667H26.2112C25.9923 12.2667 25.7988 12.4134 25.7292 12.6315L24.7133 15.8315C24.6615 15.9942 24.6879 16.1729 24.7834 16.3121C24.8789 16.4513 25.0323 16.5334 25.1954 16.5334H26.7192V18.1334H25.7033V19.2001H28.7509V18.1334H27.7351V16.5334H29.2589C29.4219 16.5334 29.5753 16.4513 29.6708 16.3115C29.7663 16.1723 29.7922 15.9937 29.7409 15.831ZM25.8999 15.4667L26.5775 13.3334H27.8773L28.5544 15.4667H25.8999Z" fill="#878AC6"/>
<path d="M30.9904 6.97973L16.2601 0.0464C16.1276 -0.0154667 15.9767 -0.0154667 15.8446 0.0464L1.1144 6.97973C0.931543 7.06613 0.814209 7.25653 0.814209 7.46667V13.8667H1.83009V7.81173L16.0524 1.11787L30.2747 7.81227V13.8667H31.2906V7.46667C31.2906 7.25653 31.1732 7.06613 30.9904 6.97973Z" fill="#878AC6"/>
<path d="M19.5587 7.37819L18.5565 7.55526C18.5804 7.70086 18.5921 7.85019 18.5921 8.00006C18.5921 9.47046 17.4528 10.6667 16.0524 10.6667C14.652 10.6667 13.5127 9.47046 13.5127 8.00006C13.5127 6.52966 14.652 5.33339 16.0524 5.33339C16.3429 5.33339 16.6284 5.38459 16.8996 5.48539L17.2379 4.47952C16.8575 4.33819 16.4587 4.26672 16.0524 4.26672C14.0918 4.26672 12.4968 5.94139 12.4968 8.00006C12.4968 10.0587 14.0918 11.7334 16.0524 11.7334C18.013 11.7334 19.608 10.0587 19.608 8.00006C19.608 7.79099 19.5912 7.58192 19.5587 7.37819Z" fill="#878AC6"/>
<path d="M19.2489 4.42297L16.0525 7.77924L15.3957 7.08964L14.6775 7.84377L15.6934 8.91044C15.7924 9.01444 15.9224 9.06671 16.0525 9.06671C16.1825 9.06671 16.3125 9.01444 16.4116 8.91044L19.9672 5.17711L19.2489 4.42297Z" fill="#878AC6"/>
</g>
<defs>
<clipPath id="clip0">
<rect x="0.814209" width="30.4764" height="32" fill="white"/>
</clipPath>
</defs>
</svg>
