<svg width="62" height="63" viewBox="0 0 62 63" fill="none" xmlns="http://www.w3.org/2000/svg">
<path d="M32.9565 54.4707H29.1341V56.3819H32.9565V54.4707Z" fill="#9B68C2"/>
<path d="M32.9565 50.6484H29.1341V52.5597H32.9565V50.6484Z" fill="#9B68C2"/>
<path d="M6.67733 44.4368L11.2643 33.4473H13.4622L14.1311 34.8807L22.8272 29.4337L21.0115 28.0959C17.7624 25.8024 15.6601 22.0755 15.469 18.0619L15.2778 15.6729C14.9911 11.6593 17.2846 7.93245 21.0115 6.30791L26.4585 3.82332C29.4209 2.58103 32.67 2.58103 35.6324 3.82332L41.1749 6.21235C44.9018 7.83689 47.0997 11.5638 46.9086 15.5773L46.7175 17.9664C46.4308 21.9799 44.424 25.6113 41.1749 28.0003L39.3593 29.3382L49.1065 35.4541C52.1645 37.3653 54.0757 40.7099 54.0757 44.3413V60.2044H8.20631V51.6039C6.19952 49.6927 5.72171 46.9214 6.67733 44.4368ZM20.1515 33.3517L25.5029 37.3653C25.8851 37.652 26.4585 37.652 26.7452 37.2697L29.4209 34.594L27.8919 33.8295C26.4585 33.065 25.1206 32.1094 23.9739 30.8671L20.1515 33.3517ZM27.7008 38.9898L31.0454 45.6791L34.3901 38.9898C34.2945 38.8943 34.1034 38.7987 34.0078 38.7032L31.0454 35.7408L28.083 38.7032C27.9875 38.7987 27.8919 38.8943 27.7008 38.9898ZM41.5572 17.4886V21.9799C41.5572 23.2222 41.366 24.5601 40.9838 25.8024C43.1817 23.7956 44.6151 21.0243 44.8062 17.9664L44.9974 15.5773C45.1885 12.3283 43.3728 9.36587 40.4104 8.02802L34.8679 5.63899C32.3833 4.58781 29.612 4.58781 27.223 5.63899L21.6804 8.02802C18.718 9.36587 16.9024 12.3283 17.0935 15.5773L17.2846 17.9664C17.4757 20.9288 18.8136 23.7956 21.1071 25.8024C20.7248 24.5601 20.5337 23.3178 20.5337 21.9799V18.1575C20.5337 16.533 21.776 15.2907 23.4005 15.2907H26.2674C27.3185 15.2907 28.1786 14.4306 28.1786 13.3794V10.0348L39.8371 14.9084C40.8882 15.2907 41.5572 16.3418 41.5572 17.4886ZM39.6459 21.9799V17.5841C39.6459 17.2019 39.4548 16.8196 39.0726 16.7241L30.0898 12.9972V13.3794C30.0898 15.4818 28.3697 17.2019 26.2674 17.2019H23.4005C22.8272 17.2019 22.4449 17.5841 22.4449 18.1575V21.9799C22.4449 26.2802 24.9295 30.2938 28.752 32.205L30.5676 33.1606C30.8543 33.2562 31.141 33.2562 31.4277 33.1606L33.2433 32.205C37.1613 30.2938 39.6459 26.2802 39.6459 21.9799ZM38.117 30.9627C36.9702 32.205 35.7279 33.1606 34.199 33.9251L32.67 34.6896L35.3457 37.3653C35.7279 37.652 36.2057 37.7475 36.588 37.4609L41.9394 33.4473L38.117 30.9627ZM36.7791 58.2932H42.5128V46.8259H44.424V58.2932H52.0689V44.4368C52.0689 41.4744 50.5399 38.7032 48.0553 37.1742L43.7551 34.4985L37.8303 38.9898C37.448 39.2765 36.8747 39.4676 36.3969 39.5632L32.7655 46.9214H36.7791V58.2932ZM27.223 58.2932H34.8679V48.7371H27.223V58.2932ZM10.022 58.2932H25.3118V46.8259H29.5165L25.8851 39.4676C25.3118 39.4676 24.834 39.2765 24.4517 38.8943L18.5269 34.4029L14.9912 36.6008L23.4005 55.9042L21.6804 56.6687L17.4757 46.9214L15.3734 47.5903C14.3222 47.9726 13.7489 49.1193 14.1311 50.1705C14.4178 51.0305 15.1823 51.5084 16.0423 51.5084H16.7113V53.4196H12.6977C11.7421 53.4196 10.882 53.2285 10.022 52.8462V58.2932ZM12.5066 51.6039C12.411 51.4128 12.3154 51.2217 12.2199 51.0305C11.4554 49.0238 12.411 46.7303 14.4178 45.9658C14.5133 45.9658 14.5133 45.8702 14.6089 45.8702L16.5201 45.2013L12.411 35.6452L8.49299 45.1058C7.53738 47.4948 8.58855 50.1705 10.9776 51.1261C11.4554 51.4128 11.9332 51.6039 12.5066 51.6039Z" fill="#9B68C2"/>
</svg>
