<svg width="41" height="25" viewBox="0 0 41 25" fill="none" xmlns="http://www.w3.org/2000/svg">
<path d="M37.4677 0H3.03597C1.40672 0 0.0812988 1.36034 0.0812988 3.03251V20.0146C0.0812988 20.3495 0.345801 20.6211 0.672232 20.6211H4.85163C5.13929 22.6757 6.86506 24.2601 8.9453 24.2601C11.0255 24.2601 12.7512 22.6757 13.039 20.6211H27.4647C27.7523 22.6757 29.4781 24.2601 31.5583 24.2601C33.6386 24.2601 35.3643 22.6757 35.652 20.6211H39.8314C40.1578 20.6211 40.4223 20.3495 40.4223 20.0146V3.03251C40.4223 1.36034 39.0969 0 37.4677 0ZM32.1493 3.63901H39.2405V13.343H33.9221C32.9446 13.343 32.1493 12.5269 32.1493 11.5235V3.63901ZM3.03597 1.213H37.4677C38.238 1.213 38.8949 1.72012 39.1388 2.42601H3.03597C2.70953 2.42601 2.44503 2.69756 2.44503 3.03251V8.49103C2.44503 8.82598 2.70953 9.17262 3.03597 9.17262C3.3624 9.17262 3.6269 8.82598 3.6269 8.49103V3.63901H30.9674V10.917H3.6269V8.49103C3.6269 8.15608 3.3624 7.88453 3.03597 7.88453C2.70953 7.88453 2.44503 8.15608 2.44503 8.49103V11.5235C2.44503 11.8585 2.70953 12.13 3.03597 12.13H31.0267C31.3013 13.5125 32.4953 14.556 33.9221 14.556H39.2405V15.7691H31.5583C29.4782 15.7691 27.7524 17.3535 27.4647 19.4081H13.039C12.7513 17.3535 11.0255 15.7691 8.9453 15.7691H1.26317V3.03251C1.26317 2.02919 2.05848 1.213 3.03597 1.213ZM1.26317 16.9821H6.0543C5.41971 17.6194 4.98384 18.4639 4.85163 19.4081H1.26317V16.9821ZM8.9453 23.0471C7.31606 23.0471 5.99063 21.6867 5.99063 20.0146C5.99063 18.3424 7.31606 16.9821 8.9453 16.9821C10.5745 16.9821 11.9 18.3424 11.9 20.0146C11.9 21.6867 10.5745 23.0471 8.9453 23.0471ZM31.5583 23.0471C29.9291 23.0471 28.6037 21.6867 28.6037 20.0146C28.6037 18.3424 29.9291 16.9821 31.5583 16.9821C33.1876 16.9821 34.513 18.3424 34.513 20.0146C34.513 21.6867 33.1876 23.0471 31.5583 23.0471ZM35.652 19.4081C35.5198 18.4639 35.0839 17.6194 34.4494 16.9821H39.2405V19.4081H35.652Z" fill="#878AC6"/>
<path d="M8.94541 18.1951C7.96792 18.1951 7.17261 19.0113 7.17261 20.0146C7.17261 21.0179 7.96792 21.8341 8.94541 21.8341C9.92289 21.8341 10.7182 21.0179 10.7182 20.0146C10.7182 19.0113 9.92289 18.1951 8.94541 18.1951ZM8.94541 20.6211C8.61953 20.6211 8.35447 20.349 8.35447 20.0146C8.35447 19.6801 8.61953 19.4081 8.94541 19.4081C9.27129 19.4081 9.53634 19.6801 9.53634 20.0146C9.53634 20.349 9.27129 20.6211 8.94541 20.6211Z" fill="#878AC6"/>
<path d="M31.5582 18.1951C30.5807 18.1951 29.7854 19.0113 29.7854 20.0146C29.7854 21.0179 30.5807 21.8341 31.5582 21.8341C32.5357 21.8341 33.331 21.0179 33.331 20.0146C33.331 19.0113 32.5357 18.1951 31.5582 18.1951ZM31.5582 20.6211C31.2323 20.6211 30.9673 20.349 30.9673 20.0146C30.9673 19.6801 31.2323 19.4081 31.5582 19.4081C31.8841 19.4081 32.1491 19.6801 32.1491 20.0146C32.1491 20.349 31.8841 20.6211 31.5582 20.6211Z" fill="#878AC6"/>
</svg>
