<svg width="19" height="15" viewBox="0 0 19 15" fill="none" xmlns="http://www.w3.org/2000/svg">
<path fill-rule="evenodd" clip-rule="evenodd" d="M18.458 1.77543C17.7791 2.07652 17.0488 2.28014 16.2828 2.37185C17.065 1.9029 17.6654 1.16112 17.9481 0.27687C17.2167 0.710633 16.4057 1.02557 15.5434 1.19573C14.8523 0.459719 13.8683 0 12.7793 0C10.6878 0 8.9925 1.69525 8.9925 3.78677C8.9925 4.08325 9.02596 4.37224 9.09056 4.64968C5.9429 4.49164 3.15286 2.98385 1.28514 0.692751C0.959239 1.25226 0.772351 1.9029 0.772351 2.59681C0.772351 3.91021 1.44088 5.0696 2.45664 5.74851C1.83599 5.7289 1.25226 5.55874 0.74178 5.27495C0.741204 5.2911 0.741204 5.30667 0.741204 5.32282C0.741204 7.15766 2.04653 8.68795 3.77927 9.03576C3.46145 9.12228 3.1269 9.16843 2.78139 9.16843C2.5374 9.16843 2.30033 9.14478 2.06903 9.10094C2.55066 10.6053 3.94943 11.7001 5.60661 11.7306C4.31052 12.7464 2.67756 13.3515 0.903288 13.3515C0.597577 13.3515 0.296481 13.3336 0 13.299C1.67564 14.373 3.66622 15 5.80504 15C12.7706 15 16.5793 9.22957 16.5793 4.22573C16.5793 4.06133 16.5758 3.8981 16.5684 3.73544C17.3084 3.20188 17.9504 2.53509 18.458 1.77543Z" fill="white"/>
</svg>
