<svg width="15" height="15" viewBox="0 0 15 15" fill="none" xmlns="http://www.w3.org/2000/svg">
<path fill-rule="evenodd" clip-rule="evenodd" d="M14.3752 0H0.625313C0.279844 0 0 0.279844 0 0.624844V14.3752C0 14.7202 0.279844 15 0.625313 15H7.96875V9.375H6.09375V7.03125H7.96875V5.15625C7.96875 3.21891 9.19547 2.26547 10.9237 2.26547C11.7516 2.26547 12.4631 2.32734 12.6703 2.35453V4.37953L11.4717 4.38C10.5319 4.38 10.3125 4.82672 10.3125 5.48203V7.03125H12.6562L12.1875 9.375H10.3125L10.35 15H14.3752C14.7202 15 15 14.7202 15 14.3752V0.624844C15 0.279844 14.7202 0 14.3752 0Z" fill="white"/>
</svg>
