<svg width="136" height="28" viewBox="0 0 136 28" fill="none" xmlns="http://www.w3.org/2000/svg">
<path d="M45.531 22.21C44.397 22.21 43.298 22.049 42.234 21.727C41.184 21.405 40.351 20.978 39.735 20.446L40.68 18.325C41.282 18.801 42.017 19.193 42.885 19.501C43.767 19.795 44.649 19.942 45.531 19.942C46.623 19.942 47.435 19.767 47.967 19.417C48.513 19.067 48.786 18.605 48.786 18.031C48.786 17.611 48.632 17.268 48.324 17.002C48.03 16.722 47.652 16.505 47.19 16.351C46.728 16.197 46.098 16.022 45.3 15.826C44.18 15.56 43.27 15.294 42.57 15.028C41.884 14.762 41.289 14.349 40.785 13.789C40.295 13.215 40.05 12.445 40.05 11.479C40.05 10.667 40.267 9.93203 40.701 9.27403C41.149 8.60203 41.814 8.07003 42.696 7.67803C43.592 7.28603 44.684 7.09003 45.972 7.09003C46.868 7.09003 47.75 7.20203 48.618 7.42603C49.486 7.65003 50.235 7.97203 50.865 8.39203L50.004 10.513C49.36 10.135 48.688 9.84803 47.988 9.65203C47.288 9.45603 46.609 9.35803 45.951 9.35803C44.873 9.35803 44.068 9.54003 43.536 9.90403C43.018 10.268 42.759 10.751 42.759 11.353C42.759 11.773 42.906 12.116 43.2 12.382C43.508 12.648 43.893 12.858 44.355 13.012C44.817 13.166 45.447 13.341 46.245 13.537C47.337 13.789 48.233 14.055 48.933 14.335C49.633 14.601 50.228 15.014 50.718 15.574C51.222 16.134 51.474 16.89 51.474 17.842C51.474 18.654 51.25 19.389 50.802 20.047C50.368 20.705 49.703 21.23 48.807 21.622C47.911 22.014 46.819 22.21 45.531 22.21ZM64.786 10.786V22H62.287V20.572C61.867 21.076 61.342 21.468 60.712 21.748C60.082 22.014 59.403 22.147 58.675 22.147C57.177 22.147 55.994 21.734 55.126 20.908C54.272 20.068 53.845 18.829 53.845 17.191V10.786H56.47V16.834C56.47 17.842 56.694 18.598 57.142 19.102C57.604 19.592 58.255 19.837 59.095 19.837C60.033 19.837 60.775 19.55 61.321 18.976C61.881 18.388 62.161 17.548 62.161 16.456V10.786H64.786ZM72.78 8.39203C71.674 8.39203 71.121 8.99403 71.121 10.198V10.87H74.208V12.97H71.205V22H68.58V12.97H66.732V10.87H68.58V10.156C68.58 8.95203 68.93 8.00703 69.63 7.32103C70.33 6.62103 71.317 6.27103 72.591 6.27103C73.599 6.27103 74.39 6.47403 74.964 6.88003L74.229 8.85403C73.781 8.54603 73.298 8.39203 72.78 8.39203ZM77.652 10.786H80.277V22H77.652V10.786ZM78.975 8.93803C78.499 8.93803 78.1 8.79103 77.778 8.49703C77.456 8.18903 77.295 7.81103 77.295 7.36303C77.295 6.91503 77.456 6.54403 77.778 6.25003C78.1 5.94203 78.499 5.78803 78.975 5.78803C79.451 5.78803 79.85 5.93503 80.172 6.22903C80.494 6.50903 80.655 6.86603 80.655 7.30003C80.655 7.76203 80.494 8.15403 80.172 8.47603C79.864 8.78403 79.465 8.93803 78.975 8.93803ZM92.7646 9.61003H87.8926V7.30003H100.367V9.61003H95.4946V22H92.7646V9.61003ZM106.055 22.147C104.921 22.147 103.899 21.902 102.989 21.412C102.079 20.922 101.365 20.243 100.847 19.375C100.343 18.493 100.091 17.499 100.091 16.393C100.091 15.287 100.343 14.3 100.847 13.432C101.365 12.564 102.079 11.885 102.989 11.395C103.899 10.905 104.921 10.66 106.055 10.66C107.203 10.66 108.232 10.905 109.142 11.395C110.052 11.885 110.759 12.564 111.263 13.432C111.781 14.3 112.04 15.287 112.04 16.393C112.04 17.499 111.781 18.493 111.263 19.375C110.759 20.243 110.052 20.922 109.142 21.412C108.232 21.902 107.203 22.147 106.055 22.147ZM106.055 19.9C107.021 19.9 107.819 19.578 108.449 18.934C109.079 18.29 109.394 17.443 109.394 16.393C109.394 15.343 109.079 14.496 108.449 13.852C107.819 13.208 107.021 12.886 106.055 12.886C105.089 12.886 104.291 13.208 103.661 13.852C103.045 14.496 102.737 15.343 102.737 16.393C102.737 17.443 103.045 18.29 103.661 18.934C104.291 19.578 105.089 19.9 106.055 19.9ZM125.407 10.786V22H122.908V20.572C122.488 21.076 121.963 21.468 121.333 21.748C120.703 22.014 120.024 22.147 119.296 22.147C117.798 22.147 116.615 21.734 115.747 20.908C114.893 20.068 114.466 18.829 114.466 17.191V10.786H117.091V16.834C117.091 17.842 117.315 18.598 117.763 19.102C118.225 19.592 118.876 19.837 119.716 19.837C120.654 19.837 121.396 19.55 121.942 18.976C122.502 18.388 122.782 17.548 122.782 16.456V10.786H125.407ZM131.343 12.424C132.099 11.248 133.429 10.66 135.333 10.66V13.159C135.109 13.117 134.906 13.096 134.724 13.096C133.702 13.096 132.904 13.397 132.33 13.999C131.756 14.587 131.469 15.441 131.469 16.561V22H128.844V10.786H131.343V12.424Z" fill="white"/>
<path d="M18.0897 0C12.0641 0 7.17938 5.04053 7.17938 11.2583C7.17938 17.4761 12.0641 22.5167 18.0897 22.5167C24.1153 22.5167 29 17.4761 29 11.2583C29 5.04053 24.1153 0 18.0897 0Z" fill="white"/>
<path d="M11.8374 28C18.3836 28 23.6749 22.5283 23.6749 15.785C23.6749 9.04167 18.3723 3.57 11.8374 3.57C5.30253 3.57 0 9.04167 0 15.785C0 22.5283 5.30253 28 11.8374 28ZM11.8374 7.15167C16.4616 7.15167 20.2039 11.025 20.2039 15.785C20.2039 20.5567 16.4503 24.4183 11.8374 24.4183C7.21325 24.4183 3.47095 20.5567 3.47095 15.785C3.47095 11.0133 7.21325 7.15167 11.8374 7.15167Z" fill="white"/>
</svg>
