<svg width="88" height="89" viewBox="0 0 88 89" fill="none" xmlns="http://www.w3.org/2000/svg">
<g clip-path="url(#clip0)">
<path d="M81.2583 18.8401H6.97321C3.45818 18.8401 0.598633 21.7254 0.598633 25.2721V61.2913C0.598633 62.0017 1.16928 62.5777 1.87355 62.5777H10.8904C11.5111 66.9355 15.2343 70.2961 19.7224 70.2961C24.2104 70.2961 27.9335 66.9355 28.5543 62.5777H59.6772C60.2978 66.9355 64.0211 70.2961 68.5091 70.2961C72.9971 70.2961 76.7202 66.9355 77.341 62.5777H86.3579C87.0622 62.5777 87.6328 62.0017 87.6328 61.2913V25.2721C87.6328 21.7254 84.7733 18.8401 81.2583 18.8401ZM69.784 26.5585H85.083V47.1409H73.6088C71.4999 47.1409 69.784 45.4097 69.784 43.2817V26.5585ZM6.97321 21.4129H81.2583C82.9202 21.4129 84.3374 22.4885 84.8637 23.9857H6.97321C6.26894 23.9857 5.69829 24.5617 5.69829 25.2721V36.8497C5.69829 37.5601 6.26894 38.2954 6.97321 38.2954C7.67747 38.2954 8.24812 37.5601 8.24812 36.8497V26.5585H67.2342V41.9953H8.24812V36.8497C8.24812 36.1393 7.67747 35.5633 6.97321 35.5633C6.26894 35.5633 5.69829 36.1393 5.69829 36.8497V43.2817C5.69829 43.9921 6.26894 44.5681 6.97321 44.5681H67.3622C67.9546 47.5002 70.5304 49.7137 73.6088 49.7137H85.083V52.2865H68.5091C64.0212 52.2865 60.298 55.6471 59.6772 60.0049H28.5543C27.9337 55.6471 24.2104 52.2865 19.7224 52.2865H3.14846V25.2721C3.14846 23.144 4.86433 21.4129 6.97321 21.4129ZM3.14846 54.8593H13.4851C12.116 56.2112 11.1757 58.0022 10.8904 60.0049H3.14846V54.8593ZM19.7224 67.7233C16.2073 67.7233 13.3478 64.838 13.3478 61.2913C13.3478 57.7446 16.2073 54.8593 19.7224 54.8593C23.2374 54.8593 26.0969 57.7446 26.0969 61.2913C26.0969 64.838 23.2374 67.7233 19.7224 67.7233ZM68.5091 67.7233C64.9941 67.7233 62.1345 64.838 62.1345 61.2913C62.1345 57.7446 64.9941 54.8593 68.5091 54.8593C72.0241 54.8593 74.8837 57.7446 74.8837 61.2913C74.8837 64.838 72.0241 67.7233 68.5091 67.7233ZM77.341 60.0049C77.0558 58.0022 76.1154 56.2112 74.7463 54.8593H85.083V60.0049H77.341Z" fill="#63D66E"/>
<path d="M19.7222 57.4321C17.6133 57.4321 15.8975 59.1633 15.8975 61.2913C15.8975 63.4194 17.6133 65.1505 19.7222 65.1505C21.8311 65.1505 23.5469 63.4194 23.5469 61.2913C23.5469 59.1633 21.8311 57.4321 19.7222 57.4321ZM19.7222 62.5777C19.0191 62.5777 18.4473 62.0007 18.4473 61.2913C18.4473 60.5819 19.0191 60.0049 19.7222 60.0049C20.4253 60.0049 20.9971 60.5819 20.9971 61.2913C20.9971 62.0007 20.4253 62.5777 19.7222 62.5777Z" fill="#63D66E"/>
<path d="M68.5093 57.4321C66.4004 57.4321 64.6846 59.1633 64.6846 61.2913C64.6846 63.4194 66.4004 65.1505 68.5093 65.1505C70.6182 65.1505 72.3341 63.4194 72.3341 61.2913C72.3341 59.1633 70.6182 57.4321 68.5093 57.4321ZM68.5093 62.5777C67.8062 62.5777 67.2344 62.0007 67.2344 61.2913C67.2344 60.5819 67.8062 60.0049 68.5093 60.0049C69.2124 60.0049 69.7842 60.5819 69.7842 61.2913C69.7842 62.0007 69.2124 62.5777 68.5093 62.5777Z" fill="#63D66E"/>
</g>
<defs>
<clipPath id="clip0">
<rect x="0.598633" y="0.658936" width="87.0342" height="87.8183" fill="white"/>
</clipPath>
</defs>
</svg>
