<svg width="59" height="59" viewBox="0 0 59 59" fill="none" xmlns="http://www.w3.org/2000/svg">
<g clip-path="url(#clip0)">
<path d="M55.8185 13.0841L55.7412 11.2669L53.9319 11.0811C46.9818 10.3673 41.0069 7.77373 37.2183 5.72369C33.0688 3.47834 30.5535 1.37182 30.5305 1.35238L29.1721 0.20459L27.8128 1.35072C27.7878 1.37176 25.2725 3.47834 21.1231 5.72362C17.3345 7.77367 11.3597 10.3672 4.40961 11.081L2.60019 11.2668L2.52294 13.0841C2.50911 13.4094 2.21845 21.16 5.20383 30.5451C6.96544 36.0834 9.50948 41.0456 12.7652 45.2946C16.8535 50.6298 22.0681 54.8354 28.2642 57.7944L29.1707 58.2274L30.0771 57.7944C36.2732 54.8354 41.4879 50.63 45.5761 45.2946C48.832 41.0457 51.376 36.0834 53.1376 30.5452C56.1229 21.1601 55.8323 13.4095 55.8185 13.0841ZM29.1707 53.5515C24.0016 50.9248 19.6267 47.3121 16.1551 42.8018C13.198 38.9598 10.8766 34.4518 9.25528 29.4034C7.27369 23.2327 6.82929 17.7295 6.73935 15.0273C9.52707 14.6134 12.3453 13.9169 15.1425 12.9495C17.877 12.0039 20.5986 10.7981 23.2317 9.36592C25.9034 7.91275 27.9365 6.52479 29.1706 5.61717C30.4048 6.52472 32.4379 7.91275 35.1096 9.36592C37.7427 10.7982 40.4643 12.0039 43.1988 12.9495C45.9967 13.9172 48.8158 14.6137 51.6043 15.0276C51.5177 17.7033 51.082 23.129 49.1285 29.2701C47.5147 34.3436 45.196 38.8741 42.2368 42.736C38.757 47.2771 34.3649 50.912 29.1707 53.5515Z" fill="#FF5F5F"/>
<path d="M40.6362 19.6465L37.7013 22.5814L26.7633 33.5195L21.2197 27.976L20.4659 27.2222L18.9786 28.7095V28.7096L17.4912 30.197L26.7633 39.469L43.6109 22.6213L40.6362 19.6465Z" fill="#FF5F5F"/>
</g>
<defs>
<clipPath id="clip0">
<rect x="0.15918" y="0.20459" width="58.0228" height="58.0228" rx="5" fill="white"/>
</clipPath>
</defs>
</svg>
